HIERARCHY
ROOT Hips
{
	OFFSET 0.000000 121.760803 0.000000
	CHANNELS 6 Xposition Yposition Zposition Xrotation Yrotation Zrotation 
	JOINT Spine
	{
		OFFSET 0.072000 7.257294 -0.789700
		CHANNELS 3 Xrotation Yrotation Zrotation
		JOINT Spine1
		{
			OFFSET 0.000000 12.508769 -0.658067
			CHANNELS 3 Xrotation Yrotation Zrotation
			JOINT Spine1_split
			{
				OFFSET 0.000000 12.508769 -0.658067
				CHANNELS 3 Xrotation Yrotation Zrotation
				JOINT Spine2
				{
					OFFSET 0.000000 12.508769 -0.658067
					CHANNELS 3 Xrotation Yrotation Zrotation
					JOINT Neck
					{
						OFFSET 0.000000 14.033295 7.520400
						CHANNELS 3 Xrotation Yrotation Zrotation
						JOINT Head
						{
							OFFSET 0.000000 8.198502 5.703100
							CHANNELS 3 Xrotation Yrotation Zrotation
							JOINT HeadTop_End
							{
								OFFSET 0.000000 17.760803 13.332701
								CHANNELS 3 Xrotation Yrotation Zrotation
								End Site
								{
									OFFSET 0.000000 0.000000 0.000000
								}
							}
						}
					}
					JOINT LeftShoulder
					{
						OFFSET 6.292450 5.785301 -0.669000
						CHANNELS 3 Xrotation Yrotation Zrotation
						JOINT LeftShoulder_split
						{
							OFFSET 6.292450 5.785301 -0.669000
							CHANNELS 3 Xrotation Yrotation Zrotation
							JOINT LeftArm
							{
								OFFSET 13.907140 -6.093903 1.965100
								CHANNELS 3 Xrotation Yrotation Zrotation
								JOINT LeftForeArm
								{
									OFFSET 34.140198 0.000000 0.000000
									CHANNELS 3 Xrotation Yrotation Zrotation
									JOINT LeftHand
									{
										OFFSET 40.960209 0.000000 0.000000
										CHANNELS 3 Xrotation Yrotation Zrotation
										JOINT LeftHandThumb1
										{
											OFFSET 10.006996 -7.170425 9.573125
											CHANNELS 3 Xrotation Yrotation Zrotation
											JOINT LeftHandThumb2
											{
												OFFSET 1.835007 -1.059448 1.059443
												CHANNELS 3 Xrotation Yrotation Zrotation
												JOINT LeftHandThumb3
												{
													OFFSET 2.112267 -1.219513 1.219518
													CHANNELS 3 Xrotation Yrotation Zrotation
													JOINT LeftHandThumb4
													{
														OFFSET 4.843811 -2.796570 2.796576
														CHANNELS 3 Xrotation Yrotation Zrotation
														End Site
														{
															OFFSET 0.000000 0.000000 0.000000
														}
													}
												}
											}
										}
										JOINT LeftHandIndex1
										{
											OFFSET 18.389847 -0.922348 4.596882
											CHANNELS 3 Xrotation Yrotation Zrotation
											JOINT LeftHandIndex2
											{
												OFFSET 4.711273 0.000000 0.000000
												CHANNELS 3 Xrotation Yrotation Zrotation
												JOINT LeftHandIndex3
												{
													OFFSET 2.886131 0.000000 0.000000
													CHANNELS 3 Xrotation Yrotation Zrotation
													JOINT LeftHandIndex4
													{
														OFFSET 6.145912 0.000000 0.000000
														CHANNELS 3 Xrotation Yrotation Zrotation
														End Site
														{
															OFFSET 0.000000 0.000000 0.000000
														}
													}
												}
											}
										}
										JOINT LeftHandMiddle1
										{
											OFFSET 18.013008 0.000000 0.000000
											CHANNELS 3 Xrotation Yrotation Zrotation
											JOINT LeftHandMiddle2
											{
												OFFSET 4.946693 0.000000 0.000000
												CHANNELS 3 Xrotation Yrotation Zrotation
												JOINT LeftHandMiddle3
												{
													OFFSET 3.342232 0.000000 0.000000
													CHANNELS 3 Xrotation Yrotation Zrotation
													JOINT LeftHandMiddle4
													{
														OFFSET 4.461754 0.000000 0.000000
														CHANNELS 3 Xrotation Yrotation Zrotation
														End Site
														{
															OFFSET 0.000000 0.000000 0.000000
														}
													}
												}
											}
										}
										JOINT LeftHandRing1
										{
											OFFSET 15.849892 -0.102921 -4.126150
											CHANNELS 3 Xrotation Yrotation Zrotation
											JOINT LeftHandRing2
											{
												OFFSET 3.527054 0.000000 0.000000
												CHANNELS 3 Xrotation Yrotation Zrotation
												JOINT LeftHandRing3
												{
													OFFSET 2.961098 0.000000 0.000000
													CHANNELS 3 Xrotation Yrotation Zrotation
													JOINT LeftHandRing4
													{
														OFFSET 4.927200 0.000000 0.000000
														CHANNELS 3 Xrotation Yrotation Zrotation
														End Site
														{
															OFFSET 0.000000 0.000000 0.000000
														}
													}
												}
											}
										}
										JOINT LeftHandPinky1
										{
											OFFSET 12.791824 -0.832031 -6.799156
											CHANNELS 3 Xrotation Yrotation Zrotation
											JOINT LeftHandPinky2
											{
												OFFSET 3.327133 0.000000 0.000000
												CHANNELS 3 Xrotation Yrotation Zrotation
												JOINT LeftHandPinky3
												{
													OFFSET 3.014900 0.000000 0.000000
													CHANNELS 3 Xrotation Yrotation Zrotation
													JOINT LeftHandPinky4
													{
														OFFSET 5.847786 0.000000 0.000000
														CHANNELS 3 Xrotation Yrotation Zrotation
														End Site
														{
															OFFSET 0.000000 0.000000 0.000000
														}
													}
												}
											}
										}
									}
								}
							}
						}
					}
					JOINT RightShoulder
					{
						OFFSET -6.292450 5.785301 -0.669000
						CHANNELS 3 Xrotation Yrotation Zrotation
						JOINT RightShoulder_split
						{
							OFFSET -6.292450 5.785301 -0.669000
							CHANNELS 3 Xrotation Yrotation Zrotation
							JOINT RightArm
							{
								OFFSET -13.907140 -6.093903 1.965100
								CHANNELS 3 Xrotation Yrotation Zrotation
								JOINT RightForeArm
								{
									OFFSET -34.140198 0.000000 0.000000
									CHANNELS 3 Xrotation Yrotation Zrotation
									JOINT RightHand
									{
										OFFSET -40.960209 0.000000 0.000000
										CHANNELS 3 Xrotation Yrotation Zrotation
										JOINT RightHandThumb1
										{
											OFFSET -10.007050 -7.170456 9.573117
											CHANNELS 3 Xrotation Yrotation Zrotation
											JOINT RightHandThumb2
											{
												OFFSET -1.835007 -1.059448 1.059443
												CHANNELS 3 Xrotation Yrotation Zrotation
												JOINT RightHandThumb3
												{
													OFFSET -2.112267 -1.219513 1.219518
													CHANNELS 3 Xrotation Yrotation Zrotation
													JOINT RightHandThumb4
													{
														OFFSET -4.843834 -2.796585 2.796590
														CHANNELS 3 Xrotation Yrotation Zrotation
														End Site
														{
															OFFSET 0.000000 0.000000 0.000000
														}
													}
												}
											}
										}
										JOINT RightHandIndex1
										{
											OFFSET -18.389870 -0.922424 4.596786
											CHANNELS 3 Xrotation Yrotation Zrotation
											JOINT RightHandIndex2
											{
												OFFSET -4.711273 0.000000 0.000000
												CHANNELS 3 Xrotation Yrotation Zrotation
												JOINT RightHandIndex3
												{
													OFFSET -2.886131 0.000000 0.000000
													CHANNELS 3 Xrotation Yrotation Zrotation
													JOINT RightHandIndex4
													{
														OFFSET -6.145920 0.000000 0.000000
														CHANNELS 3 Xrotation Yrotation Zrotation
														End Site
														{
															OFFSET 0.000000 0.000000 0.000000
														}
													}
												}
											}
										}
										JOINT RightHandMiddle1
										{
											OFFSET -18.013008 0.000000 0.000000
											CHANNELS 3 Xrotation Yrotation Zrotation
											JOINT RightHandMiddle2
											{
												OFFSET -4.946693 0.000000 0.000000
												CHANNELS 3 Xrotation Yrotation Zrotation
												JOINT RightHandMiddle3
												{
													OFFSET -3.342232 0.000000 0.000000
													CHANNELS 3 Xrotation Yrotation Zrotation
													JOINT RightHandMiddle4
													{
														OFFSET -4.461754 0.000000 0.000000
														CHANNELS 3 Xrotation Yrotation Zrotation
														End Site
														{
															OFFSET 0.000000 0.000000 0.000000
														}
													}
												}
											}
										}
										JOINT RightHandRing1
										{
											OFFSET -15.849876 -0.102936 -4.126237
											CHANNELS 3 Xrotation Yrotation Zrotation
											JOINT RightHandRing2
											{
												OFFSET -3.527054 0.000000 0.000000
												CHANNELS 3 Xrotation Yrotation Zrotation
												JOINT RightHandRing3
												{
													OFFSET -2.961098 0.000000 0.000000
													CHANNELS 3 Xrotation Yrotation Zrotation
													JOINT RightHandRing4
													{
														OFFSET -4.927200 0.000000 0.000000
														CHANNELS 3 Xrotation Yrotation Zrotation
														End Site
														{
															OFFSET 0.000000 0.000000 0.000000
														}
													}
												}
											}
										}
										JOINT RightHandPinky1
										{
											OFFSET -12.791786 -0.832077 -6.799222
											CHANNELS 3 Xrotation Yrotation Zrotation
											JOINT RightHandPinky2
											{
												OFFSET -3.327133 0.000000 0.000000
												CHANNELS 3 Xrotation Yrotation Zrotation
												JOINT RightHandPinky3
												{
													OFFSET -3.014900 0.000000 0.000000
													CHANNELS 3 Xrotation Yrotation Zrotation
													JOINT RightHandPinky4
													{
														OFFSET -5.847786 0.000000 0.000000
														CHANNELS 3 Xrotation Yrotation Zrotation
														End Site
														{
															OFFSET 0.000000 0.000000 0.000000
														}
													}
												}
											}
										}
									}
								}
							}
						}
					}
				}
			}
		}
	}
	JOINT LeftUpLeg
	{
		OFFSET 13.026900 -6.336304 -1.092800
		CHANNELS 3 Xrotation Yrotation Zrotation
		JOINT LeftLeg
		{
			OFFSET 0.524474 -46.096886 9.782700
			CHANNELS 3 Xrotation Yrotation Zrotation
			JOINT LeftFoot
			{
				OFFSET -0.524474 -53.427422 -12.948200
				CHANNELS 3 Xrotation Yrotation Zrotation
				JOINT LeftToeBase
				{
					OFFSET 0.192200 -14.009700 16.364100
					CHANNELS 3 Xrotation Yrotation Zrotation
					JOINT LeftToe_End
					{
						OFFSET -1.784700 -0.561700 9.474800
						CHANNELS 3 Xrotation Yrotation Zrotation
						End Site
						{
							OFFSET 0.000000 0.000000 0.000000
						}
					}
				}
			}
		}
	}
	JOINT RightUpLeg
	{
		OFFSET -12.883000 -6.336304 -1.092800
		CHANNELS 3 Xrotation Yrotation Zrotation
		JOINT RightLeg
		{
			OFFSET -0.524587 -46.096825 9.782800
			CHANNELS 3 Xrotation Yrotation Zrotation
			JOINT RightFoot
			{
				OFFSET 0.524587 -53.427383 -12.948300
				CHANNELS 3 Xrotation Yrotation Zrotation
				JOINT RightToeBase
				{
					OFFSET -0.192200 -14.009700 16.364100
					CHANNELS 3 Xrotation Yrotation Zrotation
					JOINT RightToe_End
					{
						OFFSET 1.784700 -0.561700 9.474800
						CHANNELS 3 Xrotation Yrotation Zrotation
						End Site
						{
							OFFSET 0.000000 0.000000 0.000000
						}
					}
				}
			}
		}
	}
}
MOTION
Frames: 4
Frame Time: 0.016667
-0.637441 101.437904 -1.096528 5.483603 3.391709 -5.949724 4.863817 1.113766 4.349505 9.857118 2.800250 1.722123 0.000000 0.000000 0.000000 9.857125 2.800250 1.722122 -7.496573 -3.144981 -0.434788 -14.101446 -7.360287 -5.253898 0.000001 0.000000 -0.000000 1.084062 -1.226536 -9.108714 0.000000 0.000000 0.000000 21.951217 16.129905 -69.744598 5.201877 -103.989862 -6.123417 11.822911 -20.243279 2.841638 -3.690103 -7.086980 -6.632111 5.385708 13.659132 2.745857 -0.000008 -0.000007 -0.000015 0.000003 0.000000 0.000000 -4.456519 -5.493664 -78.091855 -6.126703 -4.186007 -86.100299 0.000003 0.000006 0.000002 0.000000 0.000004 -0.000001 -4.795470 -3.750234 -81.576938 -5.123569 -5.382128 -79.877573 0.000002 -0.000000 -0.000005 -0.000000 -0.000001 0.000001 -3.664376 4.578268 -85.637424 -3.073157 -4.292443 -82.602996 -0.000001 -0.000005 0.000001 -0.000000 0.000001 -0.000002 -3.281148 10.951590 -91.300573 -1.701520 -6.201364 -92.126596 0.000003 0.000000 -0.000002 0.000000 -0.000002 -0.000000 0.776472 6.054089 9.529804 0.000000 0.000000 0.000000 5.506717 -10.523614 55.529277 -70.895677 86.710590 75.612796 -0.541027 5.793766 2.436027 1.190236 2.334519 7.237256 4.255920 -11.098847 -2.566627 -0.000005 0.000005 -0.000001 -0.000001 0.000001 -0.000000 3.425532 2.971799 72.847137 -5.590524 2.959991 92.129027 0.000005 -0.000004 0.000003 -0.000001 0.000003 0.000001 -2.182837 2.038026 78.119073 -4.717960 4.324984 85.933103 0.000000 0.000014 -0.000001 -0.000000 -0.000006 -0.000002 -3.544744 -3.138609 85.503361 -4.845211 5.681170 88.623337 -0.000001 0.000004 0.000003 -0.000000 0.000003 0.000001 -4.116718 -7.840894 98.141520 -5.448568 9.316745 98.222334 0.000005 0.000003 0.000004 -0.000000 -0.000001 -0.000000 -47.009375 2.073133 1.316284 96.268552 12.271244 3.451825 -3.701980 -0.879032 6.604363 -0.898553 -2.887885 -6.627548 0.000000 -0.000000 0.000000 -23.989240 -7.957318 7.346201 51.874050 -0.921018 -1.883252 -23.400442 0.955570 -1.991860 -10.708774 12.986962 -1.057757 -0.000000 0.000001 -0.000000 
0.944035 103.134018 12.985500 3.092565 0.618613 -2.517051 4.720707 1.732143 3.398620 9.626592 3.123980 0.274439 0.000000 0.000000 0.000000 9.626601 3.123984 0.274438 -2.454933 -3.325484 -1.544303 -13.137939 -8.242273 -5.177376 -0.000001 0.000000 0.000000 1.017756 -3.352020 -7.689896 0.000000 0.000000 0.000000 20.366316 21.388587 -69.829477 3.146230 -98.519851 -7.266060 11.665505 -20.398024 3.541806 -3.674532 -7.031695 -6.573689 5.390400 13.668764 2.745660 -0.000006 -0.000007 -0.000015 0.000001 0.000002 -0.000001 -4.415728 -5.486238 -77.672611 -6.076185 -4.184092 -85.682210 0.000004 0.000003 -0.000000 0.000003 0.000002 -0.000001 -4.761763 -3.747117 -81.225074 -5.085659 -5.375466 -79.524794 0.000006 -0.000002 -0.000005 -0.000001 -0.000002 0.000002 -3.642441 4.581577 -85.331821 -3.053937 -4.287323 -82.294046 -0.000000 -0.000002 -0.000003 0.000000 -0.000002 -0.000000 -3.262894 10.951638 -90.969411 -1.695747 -6.201279 -91.857705 0.000002 0.000001 -0.000001 0.000000 0.000001 -0.000000 0.471240 6.581695 7.077385 0.000000 0.000000 0.000000 2.677246 -8.531773 52.506338 -124.821188 83.187374 129.906346 0.046010 8.442201 -4.547159 1.063721 2.389925 7.088556 4.210538 -10.996074 -2.558748 -0.000004 0.000002 -0.000001 0.000003 -0.000001 0.000002 3.285704 2.958067 72.384487 -5.532258 2.967156 91.535033 0.000001 -0.000002 0.000005 -0.000001 -0.000002 -0.000001 -2.157717 2.014433 77.565377 -4.667186 4.322084 85.362229 -0.000001 0.000007 -0.000003 -0.000000 0.000001 -0.000000 -3.433801 -3.143528 84.861371 -4.797943 5.679362 88.073978 0.000002 -0.000001 0.000002 0.000000 0.000002 0.000000 -3.951822 -7.817781 97.410771 -5.399226 9.319795 97.590884 0.000005 0.000003 0.000004 0.000001 -0.000000 -0.000003 -55.617134 0.522011 1.291888 91.650026 12.282389 3.494032 4.798394 -0.562101 8.238576 -3.283813 -2.438946 -5.653316 0.000003 -0.000000 -0.000000 -13.873572 -6.300638 3.627997 50.720049 1.705610 -3.168443 -17.173037 0.445269 0.468224 -22.123999 13.554668 -0.966568 0.000000 0.000001 -0.000000 
2.214859 104.264275 26.733475 0.133416 -1.926367 1.306219 4.653185 2.143124 2.059681 9.488551 3.163840 -0.986325 0.000000 0.000000 0.000000 9.488544 3.163836 -0.986325 2.602474 -3.411513 -2.577497 -12.199127 -8.439066 -5.062702 -0.000000 -0.000000 -0.000000 0.950479 -5.646697 -7.066025 0.000000 0.000000 0.000000 19.644662 26.553692 -68.303388 -44.943318 -91.993311 -56.509492 12.433740 -20.263189 4.153210 -3.631288 -6.892564 -6.427402 5.402854 13.694233 2.745123 -0.000005 -0.000002 -0.000018 0.000001 0.000004 -0.000001 -4.314022 -5.463041 -76.623029 -5.949254 -4.173839 -84.635722 0.000000 0.000004 0.000005 0.000001 -0.000001 -0.000001 -4.676697 -3.733402 -80.346309 -4.991185 -5.357311 -78.643795 0.000003 -0.000001 -0.000008 0.000002 0.000001 0.000000 -3.588967 4.586308 -84.569988 -3.007771 -4.280705 -81.524038 -0.000002 -0.000003 -0.000000 0.000001 -0.000002 -0.000001 -3.217717 10.951130 -90.145055 -1.681576 -6.201963 -91.189289 0.000003 0.000001 -0.000002 0.000001 -0.000001 -0.000001 0.215435 7.052323 4.417730 0.000000 0.000000 0.000000 -0.696323 -7.601966 49.506618 -136.724186 80.118454 141.096682 -1.682951 8.719105 -8.099263 0.735797 2.516794 6.699296 4.098464 -10.742288 -2.538916 -0.000003 0.000003 -0.000002 0.000001 -0.000000 0.000002 2.946270 2.950508 71.140628 -5.372443 2.971049 89.955196 -0.000000 -0.000002 0.000006 0.000000 0.000000 -0.000001 -2.097288 1.952033 76.105383 -4.531266 4.309434 83.837539 -0.000002 0.000010 -0.000001 0.000000 -0.000000 0.000000 -3.153766 -3.176321 83.187196 -4.671707 5.673728 86.598418 0.000001 0.000000 0.000001 0.000000 0.000000 -0.000000 -3.529631 -7.793266 95.484214 -5.273525 9.333582 95.921544 0.000005 -0.000002 0.000005 0.000001 -0.000003 0.000001 -60.398468 -0.965373 -0.013378 85.177445 13.129832 3.595283 10.466646 -0.256778 8.510483 -4.875797 -3.545095 -3.061962 -0.000003 0.000001 0.000000 -5.346858 -5.007895 -1.485426 50.524921 2.822966 -3.859297 -2.629573 0.849386 1.349214 -43.388483 9.799561 7.166949 0.000000 -0.000001 -0.000000 
2.916431 104.314110 39.317356 -3.164433 -4.978037 4.854928 4.851753 2.571816 0.324286 9.838374 3.169748 -2.175853 0.000000 0.000000 0.000000 9.838374 3.169748 -2.175856 7.329077 -3.470431 -3.521876 -11.394780 -8.119051 -4.996077 0.000002 -0.000000 -0.000000 0.873607 -7.727235 -6.705417 0.000000 0.000000 0.000000 19.528658 31.328220 -66.134065 -131.666567 -98.266758 -145.355838 13.514968 -20.043431 4.561838 -3.569429 -6.695147 -6.222066 5.420909 13.731107 2.744362 -0.000008 -0.000003 -0.000017 -0.000001 -0.000001 0.000003 -4.171557 -5.426561 -75.144170 -5.770804 -4.154587 -83.161050 -0.000003 0.000003 0.000003 0.000000 0.000002 -0.000000 -4.557135 -3.710896 -79.109327 -4.858688 -5.329168 -77.403631 0.000002 -0.000004 -0.000003 -0.000001 -0.000001 -0.000001 -3.514131 4.593314 -83.498462 -2.943346 -4.271653 -80.441071 -0.000003 -0.000006 0.000002 -0.000002 0.000002 -0.000000 -3.154216 10.951211 -88.986225 -1.661703 -6.202858 -90.250247 0.000005 0.000001 -0.000000 0.000000 -0.000004 -0.000001 -0.010814 7.405829 1.517427 0.000000 0.000000 0.000000 -3.959898 -7.479183 46.796669 -143.758147 76.454829 146.944703 -4.558746 7.638989 -9.646803 0.277070 2.694360 6.152282 3.942589 -10.389846 -2.510528 -0.000005 0.000002 -0.000002 -0.000001 0.000000 -0.000000 2.483106 2.965532 69.371411 -5.146231 2.966103 87.716745 0.000001 -0.000003 0.000002 -0.000001 -0.000000 0.000000 -2.014731 1.861859 74.039715 -4.339288 4.284736 81.675020 -0.000001 0.000009 -0.000001 0.000001 -0.000001 0.000003 -2.765299 -3.243717 80.825112 -4.492717 5.660375 84.502889 0.000001 -0.000000 0.000001 -0.000001 -0.000000 0.000000 -2.938750 -7.797510 92.760888 -5.095202 9.348758 93.559276 0.000003 0.000000 0.000005 -0.000001 -0.000000 0.000001 -62.550913 -2.485701 -1.290569 77.566039 15.651213 4.167844 12.819064 -0.124802 7.814839 -5.330131 -5.944697 0.652714 -0.000000 -0.000001 -0.000002 -1.644971 -1.495959 -7.254490 53.725442 3.467822 -4.319472 18.665121 0.806050 -1.245336 -59.996675 2.213714 13.697354 0.000001 0.000000 -0.000000 
